<mxfile host="app.diagrams.net" agent="Mozilla/5.0 (Windows NT 10.0; Win64; x64) AppleWebKit/537.36 (KHTML, like Gecko) Chrome/131.0.0.0 Safari/537.36" version="25.0.1">
  <diagram name="Страница — 1" id="gWKKmzmFzOMBG9cRY5uA">
    <mxGraphModel dx="1300" dy="677" grid="1" gridSize="10" guides="1" tooltips="1" connect="1" arrows="1" fold="1" page="1" pageScale="1" pageWidth="1600" pageHeight="900" math="0" shadow="0">
      <root>
        <mxCell id="0" />
        <mxCell id="1" parent="0" />
        <mxCell id="a0JvtMdGpBAPznjBR410-1" value="&lt;font style=&quot;font-size: 30px;&quot;&gt;Виконання основних підпроцессів&lt;/font&gt;&lt;div&gt;&lt;div style=&quot;text-align: left;&quot;&gt;&lt;br&gt;&lt;/div&gt;&lt;div style=&quot;text-align: left;&quot;&gt;&lt;span style=&quot;font-size: 15px; background-color: initial;&quot;&gt;&amp;nbsp;1&lt;/span&gt;&lt;/div&gt;&lt;/div&gt;" style="rounded=0;whiteSpace=wrap;html=1;" vertex="1" parent="1">
          <mxGeometry x="270" y="240" width="370" height="120" as="geometry" />
        </mxCell>
        <mxCell id="a0JvtMdGpBAPznjBR410-32" style="edgeStyle=orthogonalEdgeStyle;rounded=0;orthogonalLoop=1;jettySize=auto;html=1;" edge="1" parent="1" source="a0JvtMdGpBAPznjBR410-2">
          <mxGeometry relative="1" as="geometry">
            <mxPoint x="1410" y="540" as="targetPoint" />
            <Array as="points">
              <mxPoint x="1401" y="540" />
            </Array>
          </mxGeometry>
        </mxCell>
        <mxCell id="a0JvtMdGpBAPznjBR410-2" value="&lt;font style=&quot;font-size: 30px;&quot;&gt;Реалізація програмного забезпечення&lt;/font&gt;&lt;div style=&quot;text-align: left;&quot;&gt;&lt;br&gt;&lt;/div&gt;&lt;div style=&quot;text-align: left;&quot;&gt;&lt;font style=&quot;font-size: 15px;&quot;&gt;&amp;nbsp;2&lt;/font&gt;&lt;/div&gt;" style="rounded=0;whiteSpace=wrap;html=1;" vertex="1" parent="1">
          <mxGeometry x="920" y="440" width="400" height="120" as="geometry" />
        </mxCell>
        <mxCell id="a0JvtMdGpBAPznjBR410-3" value="&lt;font style=&quot;font-size: 20px;&quot;&gt;Технічні завдання&lt;/font&gt;" style="text;html=1;align=center;verticalAlign=middle;resizable=0;points=[];autosize=1;strokeColor=none;fillColor=none;" vertex="1" parent="1">
          <mxGeometry y="240" width="190" height="40" as="geometry" />
        </mxCell>
        <mxCell id="a0JvtMdGpBAPznjBR410-4" value="&lt;font style=&quot;font-size: 20px;&quot;&gt;Вимоги клієнта&lt;/font&gt;" style="text;html=1;align=center;verticalAlign=middle;resizable=0;points=[];autosize=1;strokeColor=none;fillColor=none;" vertex="1" parent="1">
          <mxGeometry x="30" y="320" width="160" height="40" as="geometry" />
        </mxCell>
        <mxCell id="a0JvtMdGpBAPznjBR410-7" style="edgeStyle=orthogonalEdgeStyle;rounded=0;orthogonalLoop=1;jettySize=auto;html=1;entryX=0;entryY=0.833;entryDx=0;entryDy=0;entryPerimeter=0;" edge="1" parent="1" source="a0JvtMdGpBAPznjBR410-4" target="a0JvtMdGpBAPznjBR410-1">
          <mxGeometry relative="1" as="geometry" />
        </mxCell>
        <mxCell id="a0JvtMdGpBAPznjBR410-8" style="edgeStyle=orthogonalEdgeStyle;rounded=0;orthogonalLoop=1;jettySize=auto;html=1;entryX=0;entryY=0.167;entryDx=0;entryDy=0;entryPerimeter=0;" edge="1" parent="1" source="a0JvtMdGpBAPznjBR410-3" target="a0JvtMdGpBAPznjBR410-1">
          <mxGeometry relative="1" as="geometry" />
        </mxCell>
        <mxCell id="a0JvtMdGpBAPznjBR410-38" style="edgeStyle=orthogonalEdgeStyle;rounded=0;orthogonalLoop=1;jettySize=auto;html=1;entryX=0;entryY=0.75;entryDx=0;entryDy=0;" edge="1" parent="1" source="a0JvtMdGpBAPznjBR410-9" target="a0JvtMdGpBAPznjBR410-2">
          <mxGeometry relative="1" as="geometry">
            <Array as="points">
              <mxPoint x="790" y="530" />
            </Array>
          </mxGeometry>
        </mxCell>
        <mxCell id="a0JvtMdGpBAPznjBR410-9" value="&lt;font style=&quot;font-size: 20px;&quot;&gt;Архітектурний проєкт&lt;/font&gt;" style="text;html=1;align=center;verticalAlign=middle;resizable=0;points=[];autosize=1;strokeColor=none;fillColor=none;" vertex="1" parent="1">
          <mxGeometry x="680" y="320" width="220" height="40" as="geometry" />
        </mxCell>
        <mxCell id="a0JvtMdGpBAPznjBR410-39" style="edgeStyle=orthogonalEdgeStyle;rounded=0;orthogonalLoop=1;jettySize=auto;html=1;entryX=0;entryY=0.25;entryDx=0;entryDy=0;" edge="1" parent="1" source="a0JvtMdGpBAPznjBR410-10" target="a0JvtMdGpBAPznjBR410-2">
          <mxGeometry relative="1" as="geometry">
            <Array as="points">
              <mxPoint x="900" y="260" />
              <mxPoint x="900" y="470" />
            </Array>
          </mxGeometry>
        </mxCell>
        <mxCell id="a0JvtMdGpBAPznjBR410-10" value="&lt;font style=&quot;font-size: 20px;&quot;&gt;Специфікація вимог&lt;/font&gt;" style="text;html=1;align=center;verticalAlign=middle;resizable=0;points=[];autosize=1;strokeColor=none;fillColor=none;" vertex="1" parent="1">
          <mxGeometry x="680" y="240" width="210" height="40" as="geometry" />
        </mxCell>
        <mxCell id="a0JvtMdGpBAPznjBR410-17" style="edgeStyle=orthogonalEdgeStyle;rounded=0;orthogonalLoop=1;jettySize=auto;html=1;" edge="1" parent="1" target="a0JvtMdGpBAPznjBR410-1">
          <mxGeometry relative="1" as="geometry">
            <mxPoint x="850" y="220" as="targetPoint" />
            <mxPoint x="905" y="40" as="sourcePoint" />
            <Array as="points">
              <mxPoint x="905" y="160" />
              <mxPoint x="600" y="160" />
            </Array>
          </mxGeometry>
        </mxCell>
        <mxCell id="a0JvtMdGpBAPznjBR410-28" style="edgeStyle=orthogonalEdgeStyle;rounded=0;orthogonalLoop=1;jettySize=auto;html=1;entryX=0.75;entryY=0;entryDx=0;entryDy=0;" edge="1" parent="1" target="a0JvtMdGpBAPznjBR410-2">
          <mxGeometry relative="1" as="geometry">
            <mxPoint x="905" y="40" as="sourcePoint" />
            <Array as="points">
              <mxPoint x="905" y="80" />
              <mxPoint x="1220" y="80" />
            </Array>
          </mxGeometry>
        </mxCell>
        <mxCell id="a0JvtMdGpBAPznjBR410-12" value="&lt;font style=&quot;font-size: 20px;&quot;&gt;Графік виконання&lt;/font&gt;" style="text;html=1;align=center;verticalAlign=middle;resizable=0;points=[];autosize=1;strokeColor=none;fillColor=none;" vertex="1" parent="1">
          <mxGeometry x="810" width="190" height="40" as="geometry" />
        </mxCell>
        <mxCell id="a0JvtMdGpBAPznjBR410-16" style="edgeStyle=orthogonalEdgeStyle;rounded=0;orthogonalLoop=1;jettySize=auto;html=1;entryX=0.5;entryY=0;entryDx=0;entryDy=0;" edge="1" parent="1" target="a0JvtMdGpBAPznjBR410-1">
          <mxGeometry relative="1" as="geometry">
            <mxPoint x="545" y="40" as="sourcePoint" />
          </mxGeometry>
        </mxCell>
        <mxCell id="a0JvtMdGpBAPznjBR410-13" value="&lt;font style=&quot;font-size: 20px;&quot;&gt;Стандарти розробки&lt;/font&gt;" style="text;html=1;align=center;verticalAlign=middle;resizable=0;points=[];autosize=1;strokeColor=none;fillColor=none;" vertex="1" parent="1">
          <mxGeometry x="440" width="210" height="40" as="geometry" />
        </mxCell>
        <mxCell id="a0JvtMdGpBAPznjBR410-14" value="&lt;font style=&quot;font-size: 20px;&quot;&gt;Бюджет&lt;/font&gt;" style="text;html=1;align=center;verticalAlign=middle;resizable=0;points=[];autosize=1;strokeColor=none;fillColor=none;" vertex="1" parent="1">
          <mxGeometry x="260" y="120" width="100" height="40" as="geometry" />
        </mxCell>
        <mxCell id="a0JvtMdGpBAPznjBR410-15" style="edgeStyle=orthogonalEdgeStyle;rounded=0;orthogonalLoop=1;jettySize=auto;html=1;entryX=0.104;entryY=0.008;entryDx=0;entryDy=0;entryPerimeter=0;" edge="1" parent="1" source="a0JvtMdGpBAPznjBR410-14" target="a0JvtMdGpBAPznjBR410-1">
          <mxGeometry relative="1" as="geometry">
            <Array as="points">
              <mxPoint x="312" y="240" />
              <mxPoint x="312" y="240" />
            </Array>
          </mxGeometry>
        </mxCell>
        <mxCell id="a0JvtMdGpBAPznjBR410-19" value="&lt;font style=&quot;font-size: 20px;&quot;&gt;Команда розробників&lt;/font&gt;" style="text;html=1;align=center;verticalAlign=middle;resizable=0;points=[];autosize=1;strokeColor=none;fillColor=none;" vertex="1" parent="1">
          <mxGeometry x="340" y="680" width="220" height="40" as="geometry" />
        </mxCell>
        <mxCell id="a0JvtMdGpBAPznjBR410-20" value="&lt;font style=&quot;font-size: 20px;&quot;&gt;Програмні забезпечення&lt;/font&gt;" style="text;html=1;align=center;verticalAlign=middle;resizable=0;points=[];autosize=1;strokeColor=none;fillColor=none;" vertex="1" parent="1">
          <mxGeometry x="640" y="680" width="250" height="40" as="geometry" />
        </mxCell>
        <mxCell id="a0JvtMdGpBAPznjBR410-21" style="edgeStyle=orthogonalEdgeStyle;rounded=0;orthogonalLoop=1;jettySize=auto;html=1;" edge="1" parent="1" source="a0JvtMdGpBAPznjBR410-19">
          <mxGeometry relative="1" as="geometry">
            <mxPoint x="310" y="361" as="targetPoint" />
            <Array as="points">
              <mxPoint x="440" y="500" />
              <mxPoint x="310" y="500" />
              <mxPoint x="310" y="361" />
            </Array>
          </mxGeometry>
        </mxCell>
        <mxCell id="a0JvtMdGpBAPznjBR410-22" style="edgeStyle=orthogonalEdgeStyle;rounded=0;orthogonalLoop=1;jettySize=auto;html=1;entryX=0.901;entryY=1.019;entryDx=0;entryDy=0;entryPerimeter=0;" edge="1" parent="1" source="a0JvtMdGpBAPznjBR410-20" target="a0JvtMdGpBAPznjBR410-1">
          <mxGeometry relative="1" as="geometry" />
        </mxCell>
        <mxCell id="a0JvtMdGpBAPznjBR410-24" style="edgeStyle=orthogonalEdgeStyle;rounded=0;orthogonalLoop=1;jettySize=auto;html=1;entryX=0.102;entryY=1.027;entryDx=0;entryDy=0;entryPerimeter=0;" edge="1" parent="1" source="a0JvtMdGpBAPznjBR410-19" target="a0JvtMdGpBAPznjBR410-2">
          <mxGeometry relative="1" as="geometry">
            <Array as="points">
              <mxPoint x="440" y="600" />
              <mxPoint x="960" y="600" />
              <mxPoint x="960" y="563" />
            </Array>
          </mxGeometry>
        </mxCell>
        <mxCell id="a0JvtMdGpBAPznjBR410-25" style="edgeStyle=orthogonalEdgeStyle;rounded=0;orthogonalLoop=1;jettySize=auto;html=1;entryX=0.8;entryY=1.006;entryDx=0;entryDy=0;entryPerimeter=0;" edge="1" parent="1" source="a0JvtMdGpBAPznjBR410-20" target="a0JvtMdGpBAPznjBR410-2">
          <mxGeometry relative="1" as="geometry">
            <Array as="points">
              <mxPoint x="765" y="640" />
              <mxPoint x="1240" y="640" />
            </Array>
          </mxGeometry>
        </mxCell>
        <mxCell id="a0JvtMdGpBAPznjBR410-27" style="edgeStyle=orthogonalEdgeStyle;rounded=0;orthogonalLoop=1;jettySize=auto;html=1;entryX=0.2;entryY=0;entryDx=0;entryDy=0;entryPerimeter=0;" edge="1" parent="1" target="a0JvtMdGpBAPznjBR410-2">
          <mxGeometry relative="1" as="geometry">
            <mxPoint x="545" y="40" as="sourcePoint" />
            <Array as="points">
              <mxPoint x="545" y="120" />
              <mxPoint x="1000" y="120" />
            </Array>
          </mxGeometry>
        </mxCell>
        <mxCell id="a0JvtMdGpBAPznjBR410-29" value="&lt;font style=&quot;font-size: 20px;&quot;&gt;Документація&lt;/font&gt;" style="text;html=1;align=center;verticalAlign=middle;resizable=0;points=[];autosize=1;strokeColor=none;fillColor=none;" vertex="1" parent="1">
          <mxGeometry x="1400" y="520" width="150" height="40" as="geometry" />
        </mxCell>
        <mxCell id="a0JvtMdGpBAPznjBR410-30" value="&lt;font style=&quot;font-size: 20px;&quot;&gt;Готове програмне&amp;nbsp;&lt;/font&gt;&lt;div&gt;&lt;font style=&quot;font-size: 20px;&quot;&gt;забезпеченння&lt;/font&gt;&lt;/div&gt;" style="text;html=1;align=center;verticalAlign=middle;resizable=0;points=[];autosize=1;strokeColor=none;fillColor=none;" vertex="1" parent="1">
          <mxGeometry x="1400" y="430" width="190" height="60" as="geometry" />
        </mxCell>
        <mxCell id="a0JvtMdGpBAPznjBR410-31" style="edgeStyle=orthogonalEdgeStyle;rounded=0;orthogonalLoop=1;jettySize=auto;html=1;" edge="1" parent="1" source="a0JvtMdGpBAPznjBR410-2">
          <mxGeometry relative="1" as="geometry">
            <mxPoint x="1400" y="460" as="targetPoint" />
            <Array as="points">
              <mxPoint x="1400" y="460" />
              <mxPoint x="1400" y="460" />
            </Array>
          </mxGeometry>
        </mxCell>
        <mxCell id="a0JvtMdGpBAPznjBR410-35" style="edgeStyle=orthogonalEdgeStyle;rounded=0;orthogonalLoop=1;jettySize=auto;html=1;entryX=-0.013;entryY=0.535;entryDx=0;entryDy=0;entryPerimeter=0;endArrow=classic;endFill=1;" edge="1" parent="1" source="a0JvtMdGpBAPznjBR410-1" target="a0JvtMdGpBAPznjBR410-10">
          <mxGeometry relative="1" as="geometry">
            <Array as="points">
              <mxPoint x="660" y="261" />
            </Array>
          </mxGeometry>
        </mxCell>
        <mxCell id="a0JvtMdGpBAPznjBR410-36" style="edgeStyle=orthogonalEdgeStyle;rounded=0;orthogonalLoop=1;jettySize=auto;html=1;entryX=-0.008;entryY=0.491;entryDx=0;entryDy=0;entryPerimeter=0;endArrow=classic;endFill=1;" edge="1" parent="1" source="a0JvtMdGpBAPznjBR410-1" target="a0JvtMdGpBAPznjBR410-9">
          <mxGeometry relative="1" as="geometry">
            <Array as="points">
              <mxPoint x="660" y="340" />
            </Array>
          </mxGeometry>
        </mxCell>
      </root>
    </mxGraphModel>
  </diagram>
</mxfile>
